<svg xmlns="http://www.w3.org/2000/svg" viewBox="0 0 103.574 30" preserveAspectRatio="xMinYMin meet">
	<g transform="translate(6.13 -4.01)">
		<g transform="translate(-6.13 4.01)">
			<path d="M2351.056,1166.207l-2.732,3.973h-.3v-4.62h.349v3.973l2.726-3.973h.311v4.62h-.35Z" transform="translate(-2299.255 -1141.5)" fill="#d12527" fill-rule="evenodd"/>
			<path d="M2556.7,1165.89h-1.452v4.29h-.357v-4.29h-1.452v-.33h3.26Z" transform="translate(-2500.42 -1141.5)" fill="#d12527" fill-rule="evenodd"/>
			<path d="M2713.91,1282.47h2.376v.317h-2.376Z" transform="translate(-2657.566 -1255.988)" fill="#d12527" fill-rule="evenodd"/>
			<path d="M2883.026,1229.27v3.3h-.336v-2.726l-2.1,2.726h-.291v-3.3h.33V1232l2.106-2.726Z" transform="translate(-2820.509 -1203.89)" fill="#d12527" fill-rule="evenodd"/>
			<path d="M3073.665,1229.27v3.3h-.336v-1.491h-2.059v1.491h-.33v-3.3h.33v1.492h2.059v-1.492Z" transform="translate(-3007.2 -1203.89)" fill="#d12527" fill-rule="evenodd"/>
			<path d="M3244.173,1229.594h-1.2v2.977h-.33v-2.977h-1.2v-.323h2.732Z" transform="translate(-3174.168 -1203.89)" fill="#d12527" fill-rule="evenodd"/>
			<path d="M3394.963,1227.341h2.653a1.281,1.281,0,0,0-1.287-1.254A1.331,1.331,0,0,0,3394.963,1227.341Zm3,.165c0,.053-.007.106-.007.159h-2.99a1.344,1.344,0,0,0,1.4,1.234,1.256,1.256,0,0,0,1.142-.6l.29.172a1.625,1.625,0,0,1-1.438.746,1.726,1.726,0,1,1,1.6-1.709Z" transform="translate(-3324.176 -1200.463)" fill="#d12527" fill-rule="evenodd"/>
			<path d="M3605.986,1229.594h-1.736v2.977h-.33v-3.3h2.065Z" transform="translate(-3529.14 -1203.89)" fill="#d12527" fill-rule="evenodd"/>
			<path d="M3745.378,1227.493a1.4,1.4,0,1,0-1.4,1.406A1.389,1.389,0,0,0,3745.378,1227.493Zm.33,0a1.7,1.7,0,0,1-1.709,1.723,1.562,1.562,0,0,1-1.419-.838v2.086h-.33v-4.62h.33v.766a1.563,1.563,0,0,1,1.419-.838A1.7,1.7,0,0,1,3745.708,1227.493Z" transform="translate(-3664.604 -1200.463)" fill="#d12527" fill-rule="evenodd"/>
			<path d="M3950.968,1227.492a1.4,1.4,0,1,0-1.392,1.406A1.383,1.383,0,0,0,3950.968,1227.492Zm.337-1.65v3.3h-.337v-.746a1.586,1.586,0,0,1-1.419.818,1.723,1.723,0,0,1,0-3.445,1.586,1.586,0,0,1,1.419.818v-.746Z" transform="translate(-3865.936 -1200.463)" fill="#d12527" fill-rule="evenodd"/>
			<path d="M4156.963,1229.594h-1.2v2.977h-.331v-2.977h-1.2v-.323h2.732Z" transform="translate(-4068.055 -1203.89)" fill="#d12527" fill-rule="evenodd"/>
			<path d="M4309.827,1227.492a1.4,1.4,0,1,0-1.392,1.406A1.383,1.383,0,0,0,4309.827,1227.492Zm-3.128,0a1.732,1.732,0,1,1,1.736,1.723A1.71,1.71,0,0,1,4306.7,1227.492Z" transform="translate(-4217.364 -1200.463)" fill="#d12527" fill-rule="evenodd"/>
			<path d="M4525.108,1227.493a1.4,1.4,0,1,0-1.4,1.406A1.388,1.388,0,0,0,4525.108,1227.493Zm.33,0a1.7,1.7,0,0,1-1.709,1.723,1.565,1.565,0,0,1-1.419-.838v2.086h-.33v-4.62h.33v.766a1.565,1.565,0,0,1,1.419-.838A1.7,1.7,0,0,1,4525.438,1227.493Z" transform="translate(-4428.185 -1200.463)" fill="#d12527" fill-rule="evenodd"/>
			<path d="M4810.461,756.33a1.94,1.94,0,1,1-1.941-1.94A1.941,1.941,0,0,1,4810.461,756.33Z" transform="translate(-4706.887 -738.847)" fill="#d12527" fill-rule="evenodd"/>
			<path d="M2519.09,23.5V4.01h4.721V23.5Z" transform="translate(-2466.782 -4.01)" fill="#d12527" fill-rule="evenodd"/>
			<path d="M-6.13,29.138V9.87H7.141v3.842H-1.422v4.437H6.011v3.829H-1.422v7.16Z" transform="translate(6.13 -9.749)" fill="#2b2a29" fill-rule="evenodd"/>
			<path d="M759.98,9.87h4.658V21.68a4.067,4.067,0,0,0,.722,2.718,3.067,3.067,0,0,0,2.392.81,3.01,3.01,0,0,0,2.361-.81,4.092,4.092,0,0,0,.716-2.718V9.87h4.708V21.115a12.274,12.274,0,0,1-.452,3.7,5.373,5.373,0,0,1-1.494,2.335,7.2,7.2,0,0,1-2.542,1.488,11.035,11.035,0,0,1-6.541,0,7.2,7.2,0,0,1-2.543-1.488,5.511,5.511,0,0,1-1.519-2.354,11.919,11.919,0,0,1-.464-3.685Z" transform="translate(-744.111 -9.749)" fill="#2b2a29" fill-rule="evenodd"/>
			<path d="M1637.41,16.867h4.545a3.2,3.2,0,0,0,.929,2.379,3.711,3.711,0,0,0,2.574.8,4.344,4.344,0,0,0,2.234-.477,1.491,1.491,0,0,0,.791-1.343,1.612,1.612,0,0,0-.188-.785,1.243,1.243,0,0,0-.527-.521,17.471,17.471,0,0,0-2.524-.866q-2.009-.59-3.39-1.142a7.127,7.127,0,0,1-3.032-2.091,4.723,4.723,0,0,1-1.036-3.032,5.078,5.078,0,0,1,1.99-4.212,8.5,8.5,0,0,1,5.393-1.563,7.98,7.98,0,0,1,5.3,1.645,5.5,5.5,0,0,1,1.958,4.445h-4.457a2.746,2.746,0,0,0-.91-1.908,3.408,3.408,0,0,0-2.191-.615,3.325,3.325,0,0,0-1.858.471,1.4,1.4,0,0,0-.715,1.2q0,1.23,3.4,2.323.615.2.942.3l.188.063a17.179,17.179,0,0,1,4.395,1.846,4.9,4.9,0,0,1,1.356,1.714,5.081,5.081,0,0,1,.465,2.191,5.013,5.013,0,0,1-2.116,4.3,9.945,9.945,0,0,1-5.933,1.538,8.084,8.084,0,0,1-5.486-1.651,6.924,6.924,0,0,1-2.1-5Z" transform="translate(-1603.366 -4.01)" fill="#2b2a29" fill-rule="evenodd"/>
			<path d="M2879.939,14.363a7.033,7.033,0,0,0,1.149,4.332,3.9,3.9,0,0,0,3.3,1.507,3.945,3.945,0,0,0,3.321-1.507,6.979,6.979,0,0,0,1.161-4.332,6.985,6.985,0,0,0-1.161-4.325,3.938,3.938,0,0,0-3.321-1.513,3.9,3.9,0,0,0-3.3,1.507A7.033,7.033,0,0,0,2879.939,14.363Zm-4.809,0a9.909,9.909,0,0,1,2.493-7.125,10.08,10.08,0,0,1,13.56.006,9.854,9.854,0,0,1,2.518,7.119,9.854,9.854,0,0,1-2.518,7.119,10.08,10.08,0,0,1-13.56.006,9.909,9.909,0,0,1-2.493-7.125Z" transform="translate(-2815.449 -4.607)" fill="#2b2a29" fill-rule="evenodd"/>
			<path d="M3910.646,22.656V9.87h4.57V29.138h-5.11l-6.353-11.7v11.7h-4.583V9.87h5.123Z" transform="translate(-3818.279 -9.749)" fill="#2b2a29" fill-rule="evenodd"/>
		</g>
	</g>
</svg>