<svg xmlns="http://www.w3.org/2000/svg" viewBox="0 0 103.574 30" preserveAspectRatio="xMinYMin meet">
	<path d="M-7986.2,30V25.381h.33v.765a1.563,1.563,0,0,1,1.419-.838,1.7,1.7,0,0,1,1.709,1.723,1.7,1.7,0,0,1-1.709,1.721,1.563,1.563,0,0,1-1.419-.838V30Zm.33-2.969a1.389,1.389,0,0,0,1.4,1.405,1.388,1.388,0,0,0,1.4-1.405,1.388,1.388,0,0,0-1.4-1.407A1.389,1.389,0,0,0-7985.871,27.031ZM-8002.352,30V25.381h.328v.765a1.565,1.565,0,0,1,1.419-.838,1.7,1.7,0,0,1,1.709,1.723,1.7,1.7,0,0,1-1.709,1.721,1.565,1.565,0,0,1-1.419-.838V30Zm.328-2.969a1.389,1.389,0,0,0,1.4,1.405,1.389,1.389,0,0,0,1.4-1.405,1.39,1.39,0,0,0-1.4-1.407A1.39,1.39,0,0,0-8002.023,27.031Zm11.363,0a1.709,1.709,0,0,1,1.735-1.721,1.708,1.708,0,0,1,1.729,1.721,1.708,1.708,0,0,1-1.729,1.723A1.709,1.709,0,0,1-7990.66,27.03Zm.336,0a1.388,1.388,0,0,0,1.4,1.407,1.383,1.383,0,0,0,1.392-1.407,1.383,1.383,0,0,0-1.392-1.405A1.388,1.388,0,0,0-7990.324,27.03Zm-7.77,0a1.7,1.7,0,0,1,1.709-1.721,1.584,1.584,0,0,1,1.417.818v-.745h.337v3.3h-.337v-.745a1.584,1.584,0,0,1-1.417.818A1.7,1.7,0,0,1-7998.093,27.03Zm.337,0a1.388,1.388,0,0,0,1.4,1.407,1.383,1.383,0,0,0,1.392-1.407,1.383,1.383,0,0,0-1.392-1.405A1.388,1.388,0,0,0-7997.756,27.03Zm-11.8,0a1.664,1.664,0,0,1,1.709-1.721,1.654,1.654,0,0,1,1.63,1.735c0,.053-.008.106-.008.158h-2.988a1.343,1.343,0,0,0,1.4,1.235,1.256,1.256,0,0,0,1.142-.6l.291.172a1.626,1.626,0,0,1-1.439.745A1.667,1.667,0,0,1-8009.554,27.03Zm.343-.151h2.652a1.281,1.281,0,0,0-1.287-1.255A1.33,1.33,0,0,0-8009.21,26.879Zm16.592,1.8V25.7h-1.2v-.322h2.731V25.7h-1.2V28.68Zm-12.6,0v-3.3h2.065V25.7h-1.735V28.68Zm-6.308,0V25.7h-1.2v-.322h2.731V25.7h-1.2V28.68Zm-2.343,0V27.19h-2.059v1.49h-.331v-3.3h.331v1.49h2.059v-1.49h.336v3.3Zm-3.949,0V25.955l-2.1,2.725h-.291v-3.3h.33v2.725l2.1-2.725h.29v3.3Zm-7.708,0V24.391h-1.453v-.33h3.261v.33h-1.452V28.68Zm-2.672,0V24.708l-2.731,3.972h-.3V24.061h.35v3.972l2.726-3.972h.31V28.68Zm4.544-1.88v-.316h2.375V26.8Zm-20.2-8.945a6.919,6.919,0,0,1-2.1-5h4.544a3.191,3.191,0,0,0,.928,2.378,3.71,3.71,0,0,0,2.575.8,4.352,4.352,0,0,0,2.234-.478,1.49,1.49,0,0,0,.791-1.343,1.6,1.6,0,0,0-.188-.785,1.237,1.237,0,0,0-.528-.522,17.236,17.236,0,0,0-2.522-.865q-2.008-.591-3.388-1.142a7.125,7.125,0,0,1-3.033-2.091,4.717,4.717,0,0,1-1.034-3.031,5.071,5.071,0,0,1,1.989-4.211A8.5,8.5,0,0,1-8038.2,0a7.98,7.98,0,0,1,5.3,1.644,5.5,5.5,0,0,1,1.958,4.444h-4.456a2.749,2.749,0,0,0-.911-1.907,3.4,3.4,0,0,0-2.19-.616,3.319,3.319,0,0,0-1.858.471,1.4,1.4,0,0,0-.715,1.2q0,1.23,3.4,2.322.613.2.941.3l.187.062a17.148,17.148,0,0,1,4.393,1.846,4.9,4.9,0,0,1,1.357,1.712,5.09,5.09,0,0,1,.464,2.191,5.009,5.009,0,0,1-2.116,4.3,9.941,9.941,0,0,1-5.931,1.537A8.083,8.083,0,0,1-8043.857,17.855Zm26.035-.978a9.9,9.9,0,0,1-2.492-7.125,9.9,9.9,0,0,1,2.492-7.123,8.889,8.889,0,0,1,6.758-2.617,8.98,8.98,0,0,1,6.8,2.623,9.858,9.858,0,0,1,2.517,7.117,9.86,9.86,0,0,1-2.517,7.119,8.98,8.98,0,0,1-6.8,2.623A8.889,8.889,0,0,1-8017.822,16.877Zm3.464-11.454a7.024,7.024,0,0,0-1.15,4.33,7.025,7.025,0,0,0,1.15,4.331,3.894,3.894,0,0,0,3.294,1.507,3.948,3.948,0,0,0,3.321-1.507,6.976,6.976,0,0,0,1.161-4.331,6.982,6.982,0,0,0-1.161-4.324,3.941,3.941,0,0,0-3.321-1.513A3.89,3.89,0,0,0-8014.358,5.423Zm-13.333,14.058V0h4.72V19.481Zm47.385-2a1.94,1.94,0,0,1,1.94-1.94,1.939,1.939,0,0,1,1.939,1.94,1.939,1.939,0,0,1-1.939,1.939A1.939,1.939,0,0,1-7980.305,17.484Zm-7.864,1.9-6.351-11.7v11.7h-4.582V.122h5.122l6.351,12.782V.122h4.57V19.385Zm-71.436-.5a7.2,7.2,0,0,1-2.542-1.487,5.523,5.523,0,0,1-1.519-2.354,11.944,11.944,0,0,1-.464-3.683V.122h4.657V11.929a4.06,4.06,0,0,0,.722,2.718,3.063,3.063,0,0,0,2.391.809,3.009,3.009,0,0,0,2.36-.809,4.088,4.088,0,0,0,.715-2.718V.122h4.708V11.365a12.221,12.221,0,0,1-.453,3.7,5.371,5.371,0,0,1-1.493,2.334,7.184,7.184,0,0,1-2.541,1.487,10.1,10.1,0,0,1-3.27.5A10.1,10.1,0,0,1-8059.6,18.889Zm-20.4.5V.122h13.269V3.963h-8.56V8.4h7.43v3.829h-7.43v7.158Z" transform="translate(8080)" fill="#fff"/>
</svg>